<?xml version="1.0" encoding="UTF-8" standalone="no"?>
<svg
   xmlns:dc="http://purl.org/dc/elements/1.1/"
   xmlns:cc="http://creativecommons.org/ns#"
   xmlns:rdf="http://www.w3.org/1999/02/22-rdf-syntax-ns#"
   xmlns:svg="http://www.w3.org/2000/svg"
   xmlns="http://www.w3.org/2000/svg"
   xmlns:sodipodi="http://sodipodi.sourceforge.net/DTD/sodipodi-0.dtd"
   xmlns:inkscape="http://www.inkscape.org/namespaces/inkscape"
   id="Calque_1"
   data-name="Calque 1"
   viewBox="0 0 284.64 214.03"
   version="1.1"
   sodipodi:docname="logoMF.svg"
   inkscape:version="1.0.1 (c497b03c, 2020-09-10)">
  <metadata
     id="metadata924">
    <rdf:RDF>
      <cc:Work
         rdf:about="">
        <dc:format>image/svg+xml</dc:format>
        <dc:type
           rdf:resource="http://purl.org/dc/dcmitype/StillImage" />
        <dc:title />
      </cc:Work>
    </rdf:RDF>
  </metadata>
  <sodipodi:namedview
     pagecolor="#ffffff"
     bordercolor="#666666"
     borderopacity="1"
     objecttolerance="10"
     gridtolerance="10"
     guidetolerance="10"
     inkscape:pageopacity="0"
     inkscape:pageshadow="2"
     inkscape:window-width="1440"
     inkscape:window-height="815"
     id="namedview922"
     showgrid="false"
     inkscape:zoom="2.836051"
     inkscape:cx="132.79973"
     inkscape:cy="107.015"
     inkscape:window-x="0"
     inkscape:window-y="25"
     inkscape:window-maximized="0"
     inkscape:current-layer="Calque_1"
     inkscape:document-rotation="0" />
  <defs
     id="defs835">
    <style
       id="style833">.cls-1,.cls-2{fill:#fff;}.cls-1{stroke:#1d1d1b;stroke-miterlimit:10;}.cls-3{fill:#d8d7b8;}.cls-4{fill:#bfbe9d;}.cls-5{fill:#a4a486;}.cls-6{fill:none;}.cls-7{fill:#1d1d1b;}</style>
  </defs>
  <path
     class="cls-1"
     d="M93.62,778"
     transform="translate(-156.08 -215.84)"
     id="path837" />
  <path
     class="cls-1"
     d="M264.49,492.61"
     transform="translate(-156.08 -215.84)"
     id="path839" />
  <path
     class="cls-2"
     d="M373.52,295.76v1.49h-1.83Z"
     transform="translate(-156.08 -215.84)"
     id="path841" />
  <path
     class="cls-1"
     d="M226.56,560.2"
     transform="translate(-156.08 -215.84)"
     id="path843" />
  <path
     class="cls-2"
     d="M263.86,322.87"
     transform="translate(-156.08 -215.84)"
     id="path845" />
  <path
     class="cls-3"
     d="M433.94,246.55l-28,22.81-32.42,26.4-1.83,1.49h-93l-96.46-81.41H423C439.3,215.84,446.57,236.27,433.94,246.55Z"
     transform="translate(-156.08 -215.84)"
     id="path847"
     style="fill:#9eadb5;fill-opacity:1" />
  <path
     class="cls-4"
     d="M423.59,297.25c16.08,0,23.27,20.19,10.8,30.34l-28.45,23.17-32.42,26.4v35.41a17.26,17.26,0,0,1-28.31,13.27Q305,392.39,264.86,358.92l-108.78-92.3V242a26.17,26.17,0,0,1,26.17-26.17h0l96.46,81.41Z"
     transform="translate(-156.08 -215.84)"
     id="path849"
     style="fill:#607d8b;fill-opacity:1" />
  <path
     class="cls-5"
     d="M264.86,358.92l-80.33,66.84a17.35,17.35,0,0,1-28.45-13.34V266.62Z"
     transform="translate(-156.08 -215.84)"
     id="path851"
     style="fill:#455a64;fill-opacity:1" />
  <path
     class="cls-2"
     d="M264.86,247.79"
     transform="translate(-156.08 -215.84)"
     id="path853" />
  <path
     class="cls-1"
     d="M223.56,132.86"
     transform="translate(-156.08 -215.84)"
     id="path855" />
  <path
     class="cls-2"
     d="M382.78,235"
     transform="translate(-156.08 -215.84)"
     id="path857" />
  <path
     class="cls-2"
     d="M372.26,376.2"
     transform="translate(-156.08 -215.84)"
     id="path859" />
  <path
     class="cls-6"
     d="M225.06,215.84"
     transform="translate(-156.08 -215.84)"
     id="path861" />
  <path
     class="cls-2"
     d="M264.86,358.92"
     transform="translate(-156.08 -215.84)"
     id="path863" />
  <g
     aria-label="M"
     transform="scale(1.0453729,0.95659647)"
     id="text854"
     style="font-style:normal;font-weight:normal;font-size:171.682px;line-height:1.25;font-family:sans-serif;fill:#ffffff;fill-opacity:1;stroke:none;stroke-width:4.29204">
    <path
       d="m 54.806746,36.45676 q 1.545138,0 3.261958,0.85841 1.888502,0.85841 2.918594,2.231866 l 45.495732,68.844484 -6.00887,-0.17168 46.01078,-68.672804 q 2.23186,-3.261958 5.83719,-3.090276 2.74691,0.171682 4.80709,2.060184 2.06019,1.888503 2.06019,4.978779 V 149.76688 q 0,2.9186 -2.06019,4.97878 -2.06018,2.06019 -5.15046,2.06019 -3.09027,0 -5.15046,-2.06019 -2.06018,-2.06018 -2.06018,-4.97878 V 56.543555 l 4.29205,0.85841 -40.51696,61.633845 q -1.03009,1.20177 -2.57523,2.06018 -1.37345,0.85841 -2.91859,0.85841 -1.54514,0 -3.090276,-0.85841 -1.545138,-0.85841 -2.57523,-2.06018 L 57.381976,57.401965 60.987298,52.938233 v 96.828647 q 0,2.9186 -1.888502,4.97878 -1.888502,2.06019 -4.807096,2.06019 -2.918594,0 -4.807096,-2.06019 -1.71682,-2.06018 -1.71682,-4.97878 V 43.495723 q 0,-2.746912 1.888502,-4.807097 2.060184,-2.231866 5.15046,-2.231866 z"
       style="font-style:normal;font-variant:normal;font-weight:500;font-stretch:normal;font-family:Quicksand;-inkscape-font-specification:'Quicksand Medium';fill:#ffffff;stroke-width:4.29204"
       id="path860" />
  </g>
  <g
     aria-label="F"
     transform="scale(1.0311684,0.9697737)"
     id="text858"
     style="font-style:normal;font-weight:normal;font-size:169.406px;line-height:1.25;font-family:sans-serif;fill:#ffffff;fill-opacity:1;stroke:none;stroke-width:4.23515">
    <path
       d="m 156.24414,154.67509 q -3.04931,0 -5.08218,-2.03287 -1.86347,-2.03287 -1.86347,-4.91277 V 42.867131 q 0,-2.879902 1.86347,-4.743368 2.03287,-2.032872 4.91277,-2.032872 h 59.46151 q 2.8799,0 4.91277,1.863466 2.03288,1.863466 2.03288,4.743368 0,2.710496 -2.03288,4.573962 -2.03287,1.863466 -4.91277,1.863466 h -53.36289 l 1.01643,-1.355248 v 41.504471 l -0.84703,-1.863466 h 45.57022 q 2.8799,0 4.91277,2.032872 2.03288,1.863466 2.03288,4.743369 0,2.54109 -2.03288,4.573962 -2.03287,1.863467 -4.91277,1.863467 h -45.90903 l 1.18584,-1.524655 v 48.619525 q 0,2.8799 -2.03287,4.91277 -2.03287,2.03287 -4.91277,2.03287 z"
       style="font-style:normal;font-variant:normal;font-weight:500;font-stretch:normal;font-family:Quicksand;-inkscape-font-specification:'Quicksand Medium';fill:#ffffff;stroke-width:4.23515"
       id="path856" />
  </g>
</svg>
