<svg xmlns="http://www.w3.org/2000/svg" viewBox="0 0 306.24 236.47"><defs><style>.cls-1{fill:none;stroke:#fff;stroke-miterlimit:10;stroke-width:11px;}</style></defs><g id="Logo_outline" data-name="Logo outline"><path class="cls-1" d="M288.85,42.71l-28,22.81-32.42,26.4-1.83,1.49h-93l-94.82-80A.78.78,0,0,1,39.31,12H277.94C294.21,12,301.48,32.43,288.85,42.71Z"/><path class="cls-1" d="M278.5,93.41c16.08,0,23.26,20.19,10.79,30.34l-28.44,23.17-32.42,26.4v35.41A17.27,17.27,0,0,1,200.11,222l-80.34-66.92L11,62.78V38.17A26.17,26.17,0,0,1,37.16,12h0l96.46,81.41Z"/><path class="cls-1" d="M119.77,155.08,39.44,221.91A17.35,17.35,0,0,1,11,208.57V62.78Z"/></g></svg>