<?xml version="1.0" encoding="UTF-8" standalone="no"?>
<svg
   xmlns:dc="http://purl.org/dc/elements/1.1/"
   xmlns:cc="http://creativecommons.org/ns#"
   xmlns:rdf="http://www.w3.org/1999/02/22-rdf-syntax-ns#"
   xmlns:svg="http://www.w3.org/2000/svg"
   xmlns="http://www.w3.org/2000/svg"
   xmlns:sodipodi="http://sodipodi.sourceforge.net/DTD/sodipodi-0.dtd"
   xmlns:inkscape="http://www.inkscape.org/namespaces/inkscape"
   id="Calque_1"
   data-name="Calque 1"
   viewBox="0 0 284.64 214.03"
   version="1.1"
   sodipodi:docname="logoEpaisBlanc.svg"
   inkscape:version="1.0.1 (c497b03c, 2020-09-10)">
  <metadata
     id="metadata924">
    <rdf:RDF>
      <cc:Work
         rdf:about="">
        <dc:format>image/svg+xml</dc:format>
        <dc:type
           rdf:resource="http://purl.org/dc/dcmitype/StillImage" />
        <dc:title></dc:title>
      </cc:Work>
    </rdf:RDF>
  </metadata>
  <sodipodi:namedview
     pagecolor="#ffffff"
     bordercolor="#666666"
     borderopacity="1"
     objecttolerance="10"
     gridtolerance="10"
     guidetolerance="10"
     inkscape:pageopacity="0"
     inkscape:pageshadow="2"
     inkscape:window-width="1440"
     inkscape:window-height="815"
     id="namedview922"
     showgrid="false"
     inkscape:zoom="2.5582712"
     inkscape:cx="127.57972"
     inkscape:cy="101.63128"
     inkscape:window-x="0"
     inkscape:window-y="25"
     inkscape:window-maximized="0"
     inkscape:current-layer="Calque_1"
     inkscape:document-rotation="0" />
  <defs
     id="defs835">
    <style
       id="style833">.cls-1,.cls-2{fill:#fff;}.cls-1{stroke:#1d1d1b;stroke-miterlimit:10;}.cls-3{fill:#d8d7b8;}.cls-4{fill:#bfbe9d;}.cls-5{fill:#a4a486;}.cls-6{fill:none;}.cls-7{fill:#1d1d1b;}</style>
  </defs>
  <path
     class="cls-1"
     d="M93.62,778"
     transform="translate(-156.08 -215.84)"
     id="path837" />
  <path
     class="cls-1"
     d="M264.49,492.61"
     transform="translate(-156.08 -215.84)"
     id="path839" />
  <path
     class="cls-2"
     d="M373.52,295.76v1.49h-1.83Z"
     transform="translate(-156.08 -215.84)"
     id="path841" />
  <path
     class="cls-1"
     d="M226.56,560.2"
     transform="translate(-156.08 -215.84)"
     id="path843" />
  <path
     class="cls-2"
     d="M263.86,322.87"
     transform="translate(-156.08 -215.84)"
     id="path845" />
  <path
     class="cls-3"
     d="m 272.69855,36.45071 -26.10771,21.268457 -30.22899,24.615838 -1.70632,1.389302 H 127.94065 L 37.999593,7.81615 H 262.4979 c 15.19841,0 21.97709,19.049302 10.20065,28.63456 z"
     id="path847"
     style="fill:#bebe9e;fill-opacity:0;stroke:#ffffff;stroke-width:10.5723;stroke-miterlimit:4;stroke-dasharray:none;stroke-opacity:1" />
  <path
     class="cls-4"
     d="m 259.04802,83.52434 c 14.99329,0 21.69737,18.82552 10.07012,28.28957 l -26.5273,21.60412 -30.22899,24.61584 v 33.01692 a 16.093536,16.093536 0 0 1 -26.39676,12.3732 Q 148.47256,172.2346 111.0453,141.02656 L 9.6168591,54.964375 V 32.008241 A 24.401382,24.401382 0 0 1 34.018241,7.6068592 v 0 L 123.95929,83.515016 Z"
     id="path849"
     style="fill:#bebe9e;fill-opacity:0;stroke:#ffffff;stroke-width:10.5723;stroke-miterlimit:4;stroke-dasharray:none;stroke-opacity:1" />
  <path
     class="cls-5"
     d="M 111.0453,141.02656 36.144154,203.34939 A 16.177454,16.177454 0 0 1 9.6168591,190.91093 V 54.964375 Z"
     id="path851"
     style="fill:#bebe9e;fill-opacity:0;stroke:#ffffff;stroke-width:10.5723;stroke-miterlimit:4;stroke-dasharray:none;stroke-opacity:1" />
  <path
     class="cls-2"
     d="M264.86,247.79"
     transform="translate(-156.08 -215.84)"
     id="path853" />
  <path
     class="cls-1"
     d="M223.56,132.86"
     transform="translate(-156.08 -215.84)"
     id="path855" />
  <path
     class="cls-2"
     d="M382.78,235"
     transform="translate(-156.08 -215.84)"
     id="path857" />
  <path
     class="cls-2"
     d="M372.26,376.2"
     transform="translate(-156.08 -215.84)"
     id="path859" />
  <path
     class="cls-6"
     d="M225.06,215.84"
     transform="translate(-156.08 -215.84)"
     id="path861" />
  <path
     class="cls-2"
     d="M264.86,358.92"
     transform="translate(-156.08 -215.84)"
     id="path863" />
</svg>
