<svg xmlns="http://www.w3.org/2000/svg" viewBox="0 0 306.24 236.47"><defs><style>.cls-1{fill:#9dadb5;}.cls-2{fill:#617d8b;}.cls-3{fill:#455a64;}.cls-4{fill:#fff;}</style></defs><g id="Logo_MF" data-name="Logo MF"><path class="cls-1" d="M288.85,46.9l-28,22.81-32.42,26.4L226.6,97.6h-93L37.27,16.28s0-.09,0-.09H277.94C294.21,16.19,301.48,36.62,288.85,46.9Z"/><path class="cls-2" d="M278.5,97.6c16.08,0,23.26,20.18,10.79,30.34l-28.44,23.17-32.42,26.4v35.41a17.27,17.27,0,0,1-28.32,13.27l-80.34-66.92L11,67V42.36A26.17,26.17,0,0,1,37.16,16.19h0L133.62,97.6Z"/><path class="cls-3" d="M119.77,159.27,39.44,226.1A17.35,17.35,0,0,1,11,212.76V67Z"/><path class="cls-4" d="M70.64,50.86A12.21,12.21,0,0,1,76,52.21a10.33,10.33,0,0,1,4.23,3.51L123.92,123l-9-.36,44.82-67a10.37,10.37,0,0,1,8.82-4.86,11.3,11.3,0,0,1,7.74,3.06,10.14,10.14,0,0,1,3.42,7.92V166.06a10.63,10.63,0,0,1-11.16,11,11.08,11.08,0,0,1-8.19-3.15,10.63,10.63,0,0,1-3.15-7.83V81.28l7,1.62-36.72,56a15.13,15.13,0,0,1-4,3.42,8.39,8.39,0,0,1-5,1.26,8.06,8.06,0,0,1-4.77-1.26,15.13,15.13,0,0,1-4-3.42L75.32,84.52,80,75v91.08a11.17,11.17,0,0,1-2.88,7.83A9.76,9.76,0,0,1,69.56,177a9.55,9.55,0,0,1-7.38-3.15,11.17,11.17,0,0,1-2.88-7.83V61.84a10.42,10.42,0,0,1,3.33-7.74A11.07,11.07,0,0,1,70.64,50.86Z"/><path class="cls-4" d="M169.66,176a11,11,0,0,1-8.14-3.14,10.54,10.54,0,0,1-3.13-7.78V61.66A10.69,10.69,0,0,1,169.3,50.74h58.18a10.92,10.92,0,0,1,7.79,2.95,10,10,0,0,1,3.13,7.61,9.51,9.51,0,0,1-3.13,7,10.74,10.74,0,0,1-7.79,3H179.15l1.61-2.15v36l-1.25-2.32h39.91a10.9,10.9,0,0,1,7.79,3,10,10,0,0,1,3.13,7.61,9.47,9.47,0,0,1-3.13,7,10.73,10.73,0,0,1-7.79,3H179.15l1.61-1.61v43.32a10.25,10.25,0,0,1-3.31,7.78A11,11,0,0,1,169.66,176Z"/></g></svg>