<?xml version="1.0" encoding="UTF-8" standalone="no"?>
<svg
   xmlns:dc="http://purl.org/dc/elements/1.1/"
   xmlns:cc="http://creativecommons.org/ns#"
   xmlns:rdf="http://www.w3.org/1999/02/22-rdf-syntax-ns#"
   xmlns:svg="http://www.w3.org/2000/svg"
   xmlns="http://www.w3.org/2000/svg"
   xmlns:sodipodi="http://sodipodi.sourceforge.net/DTD/sodipodi-0.dtd"
   xmlns:inkscape="http://www.inkscape.org/namespaces/inkscape"
   id="Calque_1"
   data-name="Calque 1"
   viewBox="0 0 284.64 214.03"
   version="1.1"
   sodipodi:docname="Logo3.svg"
   inkscape:version="1.0.1 (c497b03c, 2020-09-10)">
  <metadata
     id="metadata924">
    <rdf:RDF>
      <cc:Work
         rdf:about="">
        <dc:format>image/svg+xml</dc:format>
        <dc:type
           rdf:resource="http://purl.org/dc/dcmitype/StillImage" />
        <dc:title></dc:title>
      </cc:Work>
    </rdf:RDF>
  </metadata>
  <sodipodi:namedview
     pagecolor="#ffffff"
     bordercolor="#666666"
     borderopacity="1"
     objecttolerance="10"
     gridtolerance="10"
     guidetolerance="10"
     inkscape:pageopacity="0"
     inkscape:pageshadow="2"
     inkscape:window-width="1440"
     inkscape:window-height="900"
     id="namedview922"
     showgrid="false"
     inkscape:zoom="2.5582712"
     inkscape:cx="101.78105"
     inkscape:cy="150.10151"
     inkscape:window-x="0"
     inkscape:window-y="0"
     inkscape:window-maximized="0"
     inkscape:current-layer="Calque_1" />
  <defs
     id="defs835">
    <style
       id="style833">.cls-1,.cls-2{fill:#fff;}.cls-1{stroke:#1d1d1b;stroke-miterlimit:10;}.cls-3{fill:#d8d7b8;}.cls-4{fill:#bfbe9d;}.cls-5{fill:#a4a486;}.cls-6{fill:none;}.cls-7{fill:#1d1d1b;}</style>
  </defs>
  <path
     class="cls-1"
     d="M93.62,778"
     transform="translate(-156.08 -215.84)"
     id="path837" />
  <path
     class="cls-1"
     d="M264.49,492.61"
     transform="translate(-156.08 -215.84)"
     id="path839" />
  <path
     class="cls-2"
     d="M373.52,295.76v1.49h-1.83Z"
     transform="translate(-156.08 -215.84)"
     id="path841" />
  <path
     class="cls-1"
     d="M226.56,560.2"
     transform="translate(-156.08 -215.84)"
     id="path843" />
  <path
     class="cls-2"
     d="M263.86,322.87"
     transform="translate(-156.08 -215.84)"
     id="path845" />
  <path
     class="cls-3"
     d="M433.94,246.55l-28,22.81-32.42,26.4-1.83,1.49h-93l-96.46-81.41H423C439.3,215.84,446.57,236.27,433.94,246.55Z"
     transform="translate(-156.08 -215.84)"
     id="path847" />
  <path
     class="cls-4"
     d="M423.59,297.25c16.08,0,23.27,20.19,10.8,30.34l-28.45,23.17-32.42,26.4v35.41a17.26,17.26,0,0,1-28.31,13.27Q305,392.39,264.86,358.92l-108.78-92.3V242a26.17,26.17,0,0,1,26.17-26.17h0l96.46,81.41Z"
     transform="translate(-156.08 -215.84)"
     id="path849" />
  <path
     class="cls-5"
     d="M264.86,358.92l-80.33,66.84a17.35,17.35,0,0,1-28.45-13.34V266.62Z"
     transform="translate(-156.08 -215.84)"
     id="path851" />
  <path
     class="cls-2"
     d="M264.86,247.79"
     transform="translate(-156.08 -215.84)"
     id="path853" />
  <path
     class="cls-1"
     d="M223.56,132.86"
     transform="translate(-156.08 -215.84)"
     id="path855" />
  <path
     class="cls-2"
     d="M382.78,235"
     transform="translate(-156.08 -215.84)"
     id="path857" />
  <path
     class="cls-2"
     d="M372.26,376.2"
     transform="translate(-156.08 -215.84)"
     id="path859" />
  <path
     class="cls-6"
     d="M225.06,215.84"
     transform="translate(-156.08 -215.84)"
     id="path861" />
  <path
     class="cls-2"
     d="M264.86,358.92"
     transform="translate(-156.08 -215.84)"
     id="path863" />
</svg>
