<svg xmlns="http://www.w3.org/2000/svg" viewBox="0 0 306.24 236.47"><defs><style>.cls-1{fill:#9dadb5;}.cls-2{fill:#617d8b;}.cls-3{fill:#455a64;}</style></defs><g id="Logo_full" data-name="Logo full"><path class="cls-1" d="M288.85,46.9l-28,22.81-32.42,26.4L226.6,97.6h-93L37.27,16.28s0-.09,0-.09H277.94C294.21,16.19,301.48,36.62,288.85,46.9Z"/><path class="cls-2" d="M278.5,97.6c16.08,0,23.26,20.18,10.79,30.34l-28.44,23.17-32.42,26.4v35.41a17.27,17.27,0,0,1-28.32,13.27l-80.34-66.92L11,67V42.36A26.17,26.17,0,0,1,37.16,16.19h0L133.62,97.6Z"/><path class="cls-3" d="M119.77,159.27,39.44,226.1A17.35,17.35,0,0,1,11,212.76V67Z"/></g></svg>